<svg width="250" height="150" viewBox="0 0 250 150" fill="none" xmlns="http://www.w3.org/2000/svg">
<g id="Vector">
<path d="M159.848 141.933L159.954 149.201L92.0595 149.545L91.9538 142.276L107.752 140.519C110.815 140.131 112.627 139.376 113.186 138.255C113.745 137.134 113.977 133.311 113.882 126.788L112.869 57.1787C112.669 43.3872 110.322 33.707 105.829 28.1382C101.526 22.382 95.2507 19.5247 87.0037 19.5664C81.0581 19.5965 74.3725 21.4941 66.9469 25.2594C59.713 29.0237 52.817 36.2344 46.2589 46.8915L46.8425 87.008L47.4261 127.125C47.521 133.648 47.8643 137.467 48.456 138.582C49.0476 139.697 50.8805 140.434 53.9546 140.791L69.8018 142.388L69.9076 149.657L2.0133 150L1.90755 142.732L17.706 140.974C20.7692 140.586 22.5804 139.831 23.1395 138.71C23.6986 137.589 23.9307 133.767 23.8358 127.244L22.4814 34.1511C22.3865 27.6281 22.0432 23.809 21.4515 22.6937C20.8599 21.5784 19.0271 20.8421 15.953 20.4849L0.109787 19.1671L0 11.6191L44.3038 11.395L44.6333 34.0392C51.2186 25.2458 58.7008 18.7776 67.08 14.6348C75.651 10.491 84.1559 8.39771 92.5947 8.35503C113.308 8.25029 126.772 17.4083 132.986 35.829C139.941 26.1018 147.703 19.0731 156.271 14.7429C165.029 10.2254 173.818 7.9443 182.641 7.89969C196.258 7.83083 206.869 12.0641 214.474 20.5993C222.267 28.9473 213.611 41.8889 213.836 57.3578L227.519 126.214C227.614 132.737 227.957 136.556 228.548 137.671C229.14 138.787 230.973 139.523 234.047 139.88L249.894 141.477L250 148.746L182.106 149.089L182 141.821L197.798 140.063C197.239 141.185 200.862 139.675 197.798 140.063C198.357 138.942 204.023 132.856 203.928 126.333L202.915 56.7233C202.715 42.9318 200.368 33.2516 195.876 27.6828C191.572 21.9266 185.297 19.0694 177.05 19.1111C171.104 19.1412 164.324 21.1325 156.709 25.0851C149.284 28.8503 142.295 36.2479 135.742 47.2778C135.955 48.7678 136.074 50.3514 136.099 52.0288C136.312 53.5188 136.431 55.1025 136.456 56.7798L137.472 126.669C137.567 133.192 137.911 137.011 138.502 138.127C139.094 139.242 140.927 139.978 144.001 140.335L159.848 141.933Z" fill="#64BAE2"/>
<path d="M222.646 0L224.809 148.725L177.916 148.962L177.811 141.693L207.9 133.433C210.193 132.863 211.814 132.202 212.762 131.452C213.905 130.887 214.558 129.672 214.723 127.807C215.079 125.942 215.225 122.772 215.16 118.299L209.961 86.1832L46.8425 87.008C40.1298 87.042 40.9412 87.8676 39.7986 88.4325C38.656 88.9975 37.9146 90.7719 37.5744 93.7558L36.072 109.14L28.5921 109.178L27.6119 41.8046L35.0917 41.7668L37.0416 57.1337C37.4685 60.1137 38.2615 61.8804 39.4204 62.4337C40.5793 62.987 39.9132 72.1531 46.6259 72.1191L209.745 71.2943L213.883 30.5183C213.821 26.2318 213.583 23.0644 213.169 21.0162C212.95 19.1535 212.26 17.8523 211.099 17.1126C210.131 16.5583 208.493 16.0075 206.183 15.46L175.858 7.50559L175.753 0.237092L222.646 0Z" fill="#64BAE2"/>
</g>
</svg>
